<svg width="93" height="93" viewBox="0 0 93 93" fill="none" xmlns="http://www.w3.org/2000/svg">
<rect width="93" height="93" rx="22" fill="#4A101D"/>
<path d="M47.6927 67.2095C47.59 67.009 47.5153 66.8319 47.4686 66.6827L36.0826 40.6303C35.2796 41.3856 34.5 42.1875 33.7437 43.0407C32.9875 43.8939 32.2359 44.7703 31.4843 45.6748L28.1651 43.2645C30.0745 40.9054 32.1612 38.7981 34.4207 36.9378L32.6887 32.947C32.2359 31.9446 31.7317 31.2173 31.1808 30.7651C30.6253 30.3129 30.0885 30.0005 29.5609 29.8233C29.0334 29.6462 28.5432 29.5203 28.0904 29.4457C27.6376 29.3711 27.3108 29.1799 27.1101 28.8816L25 25.7952H47.0158C45.9094 26.35 45.0317 26.8395 44.3782 27.2638C43.7246 27.6927 43.2484 28.103 42.945 28.5039C42.6415 28.9049 42.4922 29.3198 42.4922 29.7441C42.4922 30.173 42.5902 30.6858 42.7956 31.2873C46.3108 29.3804 49.7794 28.0004 53.2013 27.1472C56.6185 26.294 59.7602 25.8418 62.6266 25.7905C64.9374 25.7905 66.5713 26.2428 67.5283 27.1472C68.4806 28.0517 68.9708 29.2452 68.9988 30.7231C69.0222 32.2057 68.6954 33.8841 68.0185 35.7676C67.3416 37.6512 66.4966 39.572 65.4929 41.5255L52.4403 67.2095H47.6927ZM60.6612 41.7586C62.1691 39.3016 63.2615 37.1803 63.9431 35.3947C64.62 33.6137 64.9841 32.1171 65.0354 30.9143C65.0868 29.7114 64.886 28.793 64.4332 28.1682C63.9804 27.5389 63.3502 27.1799 62.5472 27.0773C61.6929 26.9794 60.6099 27.026 59.3074 27.2265C58.0003 27.427 56.5438 27.8186 54.9332 28.392C53.3226 28.9701 51.5907 29.7208 49.7327 30.6532C47.8747 31.581 45.9654 32.7232 44.0047 34.0799L53.0519 54.3325L60.6612 41.7586Z" fill="white"/>
</svg>
