<svg width="36" height="36" viewBox="0 0 36 36" fill="none" xmlns="http://www.w3.org/2000/svg">
<path d="M18.0301 4.36499C13.0651 4.36499 9.03013 8.39999 9.03013 13.365V17.7C9.03013 18.615 8.64013 20.01 8.17513 20.79L6.45013 23.655C5.38513 25.425 6.12013 27.39 8.07013 28.05C14.5351 30.21 21.5101 30.21 27.9751 28.05C29.7901 27.45 30.5851 25.305 29.5951 23.655L27.8701 20.79C27.4201 20.01 27.0301 18.615 27.0301 17.7V13.365C27.0301 8.41499 22.9801 4.36499 18.0301 4.36499Z" stroke="#080706" stroke-width="2.25" stroke-miterlimit="10" stroke-linecap="round"/>
<path d="M20.8049 4.80003C20.3399 4.66503 19.8599 4.56003 19.3649 4.50003C17.9249 4.32003 16.5449 4.42503 15.2549 4.80003C15.6899 3.69003 16.7699 2.91003 18.0299 2.91003C19.2899 2.91003 20.3699 3.69003 20.8049 4.80003Z" stroke="#080706" stroke-width="2.25" stroke-miterlimit="10" stroke-linecap="round" stroke-linejoin="round"/>
<path opacity="0.4" d="M22.53 28.59C22.53 31.065 20.505 33.09 18.03 33.09C16.8 33.09 15.66 32.58 14.85 31.77C14.04 30.96 13.53 29.82 13.53 28.59" stroke="#080706" stroke-width="2.25" stroke-miterlimit="10"/>
</svg>
