<svg width="66" height="66" viewBox="0 0 66 66" fill="none" xmlns="http://www.w3.org/2000/svg">
<rect width="66" height="66" rx="33" fill="#CE3636"/>
<g clip-path="url(#clip0_1_285)">
<path d="M41.6875 36.4811C41.0987 35.2536 38.9925 33.5498 36.9575 31.9035C35.8225 30.986 34.75 30.1185 34.0663 29.4348C33.895 29.2623 33.6388 29.2073 33.4125 29.2886C32.9913 29.4411 32.7313 29.5586 32.5263 29.6498C32.2138 29.7898 32.1088 29.8373 31.6875 29.8798C31.5013 29.8985 31.3338 29.9985 31.23 30.1535C30.3463 31.4747 29.4313 31.3622 28.82 31.1573C28.625 31.0923 28.59 31.0085 28.5713 30.9285C28.44 30.3798 29.0988 29.1023 29.9525 28.2485C31.9838 26.216 33.0313 25.7072 35.2438 26.696C37.7537 27.8185 40.2687 28.6973 40.2938 28.706C40.6225 28.8197 40.9763 28.6472 41.09 28.321C41.2025 27.9947 41.0312 27.6385 40.705 27.5248C40.68 27.516 38.215 26.6548 35.755 25.5535C32.8888 24.2722 31.3162 25.116 29.07 27.3635C28.215 28.2185 27.0537 29.9485 27.3537 31.2173C27.4824 31.7573 27.8625 32.1573 28.4274 32.3435C29.8437 32.811 31.1362 32.3635 32.0987 31.086C32.4962 31.0248 32.7124 30.9348 33.0374 30.7886C33.1549 30.7361 33.2924 30.6748 33.4749 30.6011C34.1899 31.2723 35.1549 32.0535 36.1712 32.8748C38.0087 34.361 40.0924 36.0461 40.5612 37.0211C40.7925 37.5023 40.5437 37.8161 40.3749 37.9598C40.1274 38.1723 39.7887 38.2398 39.6049 38.111C39.4024 37.9723 39.1387 37.9635 38.9299 38.0885C38.7199 38.2135 38.6025 38.4497 38.6287 38.6923C38.6712 39.0898 38.3074 39.3173 38.1499 39.396C37.7499 39.5985 37.3324 39.5635 37.1762 39.4185C37.0012 39.2561 36.7499 39.2085 36.5274 39.291C36.3049 39.3748 36.1499 39.5798 36.1274 39.8173C36.0899 40.2272 35.7862 40.621 35.3899 40.7747C35.1986 40.8472 34.9211 40.891 34.6724 40.6635C34.5174 40.5235 34.3024 40.4697 34.1012 40.5185C33.8974 40.5684 33.7337 40.716 33.6624 40.9122C33.6387 40.9747 33.5849 41.1247 32.9999 41.1247C32.5837 41.1247 31.8349 40.8435 31.4687 40.601C31.0299 40.3122 28.2787 38.2597 25.9024 36.2697C25.5687 35.9885 24.9912 35.3859 24.4812 34.8534C24.0287 34.3809 23.6149 33.9522 23.4024 33.7722C23.1362 33.5472 22.7424 33.581 22.5212 33.846C22.2987 34.1097 22.3312 34.5047 22.5949 34.7272C22.7887 34.891 23.1637 35.2872 23.5774 35.7185C24.135 36.3009 24.7112 36.9035 25.0987 37.2285C27.4262 39.1772 30.2237 41.281 30.7812 41.6472C31.2412 41.9497 32.2324 42.3747 33 42.3747C33.6162 42.3747 34.09 42.2334 34.4187 41.9572C34.8587 42.1285 35.3587 42.1297 35.8399 41.9422C36.4087 41.7222 36.8762 41.2785 37.1412 40.741C37.6337 40.846 38.1975 40.7722 38.7099 40.5148C39.2112 40.2623 39.5737 39.876 39.7537 39.4247C40.2512 39.451 40.7636 39.2747 41.1874 38.911C41.905 38.2973 42.1024 37.3423 41.6875 36.4811Z" fill="white"/>
<path d="M30.5 26.1248H24.875C24.53 26.1248 24.25 26.4048 24.25 26.7498C24.25 27.0948 24.53 27.3748 24.875 27.3748H30.5C30.845 27.3748 31.125 27.0948 31.125 26.7498C31.125 26.4048 30.845 26.1248 30.5 26.1248Z" fill="white"/>
<path d="M43.5187 35.151C43.325 34.8648 42.9375 34.786 42.6512 34.981L40.8238 36.2085C40.5375 36.401 40.4612 36.7898 40.6538 37.076C40.775 37.2548 40.9725 37.3523 41.1738 37.3523C41.2926 37.3523 41.4138 37.3185 41.5213 37.246L43.3488 36.0186C43.635 35.826 43.7112 35.4373 43.5187 35.151Z" fill="white"/>
<path d="M39.6387 38.1336C39.1912 37.7811 37.1899 35.7324 35.9524 34.4424C35.7137 34.1923 35.3174 34.1836 35.0687 34.4236C34.8186 34.6624 34.8111 35.0586 35.0499 35.3074C35.3712 35.6424 38.2049 38.5961 38.8637 39.1162C38.9774 39.2062 39.1149 39.2499 39.2499 39.2499C39.4337 39.2499 39.6174 39.1674 39.7424 39.0112C39.9562 38.7411 39.91 38.3473 39.6387 38.1336Z" fill="white"/>
<path d="M37.1412 39.3873C36.3924 38.7885 34.5112 36.7898 34.0862 36.3273C33.8511 36.0723 33.4574 36.0573 33.2024 36.2898C32.9486 36.5235 32.9312 36.9198 33.1649 37.1735C33.1874 37.1973 35.4324 39.6211 36.3599 40.3636C36.4749 40.4548 36.6137 40.4998 36.7499 40.4998C36.9324 40.4998 37.1149 40.4185 37.2386 40.2661C37.4537 39.996 37.4099 39.6023 37.1412 39.3873Z" fill="white"/>
<path d="M34.6538 40.6461C33.7625 39.8948 31.9388 37.9536 31.5825 37.5723C31.3463 37.3198 30.95 37.306 30.6988 37.5423C30.4463 37.7785 30.4338 38.1735 30.6688 38.4261C31.1813 38.9748 32.9263 40.8248 33.8475 41.6023C33.965 41.701 34.1075 41.7498 34.25 41.7498C34.4275 41.7498 34.605 41.6736 34.7288 41.5273C34.9513 41.2623 34.9175 40.8685 34.6538 40.6461Z" fill="white"/>
<path d="M25.305 25.0461C24.2337 24.031 19.95 23.7023 18.6625 23.626C18.485 23.6173 18.3213 23.676 18.1963 23.7948C18.0712 23.9123 18 24.0773 18 24.2498V35.4998C18 35.8448 18.28 36.1248 18.625 36.1248H22.375C22.645 36.1248 22.885 35.9511 22.9688 35.6935C23.06 35.4135 25.2138 28.8036 25.4975 25.5535C25.5138 25.3635 25.4437 25.176 25.305 25.0461ZM21.9187 34.8748H19.25V24.9198C21.2587 25.0785 23.4262 25.4235 24.2137 25.806C23.8825 28.5435 22.3837 33.4073 21.9187 34.8748Z" fill="white"/>
<path d="M47.375 24.8748C42.4674 24.8748 39.7449 26.1311 39.6312 26.1836C39.4687 26.2598 39.3474 26.4011 39.2974 26.5723C39.2475 26.7436 39.2724 26.9274 39.3662 27.0798C40.1387 28.3236 42.5574 35.2311 43.0224 36.9161C43.0974 37.1873 43.3437 37.3748 43.625 37.3748H47.375C47.72 37.3748 48 37.0948 48 36.7498V25.4998C48 25.1535 47.72 24.8748 47.375 24.8748ZM46.75 36.1248H44.0925C43.5 34.1948 41.75 29.1623 40.7737 27.0823C41.7275 26.7586 43.7762 26.2023 46.75 26.1324V36.1248Z" fill="white"/>
</g>
<defs>
<clipPath id="clip0_1_285">
<rect width="30" height="30" fill="white" transform="translate(18 18)"/>
</clipPath>
</defs>
</svg>
