<svg width="205" height="49" viewBox="0 0 205 49" fill="none" xmlns="http://www.w3.org/2000/svg">
<path d="M0 11.5914C0 5.18965 5.18965 0 11.5914 0H37.4086C43.8104 0 49 5.18965 49 11.5914V37.4086C49 43.8104 43.8104 49 37.4086 49H11.5914C5.18965 49 0 43.8104 0 37.4086V11.5914Z" fill="#4A101D"/>
<path d="M25.1284 35.4115C25.0743 35.3058 25.0349 35.2125 25.0103 35.1339L19.0113 21.4074C18.5882 21.8053 18.1774 22.2278 17.779 22.6773C17.3805 23.1269 16.9845 23.5887 16.5885 24.0652L14.8397 22.7952C15.8457 21.5523 16.9452 20.442 18.1356 19.4619L17.2231 17.3592C16.9845 16.831 16.7189 16.4478 16.4286 16.2096C16.1359 15.9713 15.8531 15.8067 15.5751 15.7134C15.2972 15.62 15.0389 15.5537 14.8003 15.5144C14.5618 15.4751 14.3896 15.3744 14.2838 15.2172L13.1721 13.591H24.7718C24.1888 13.8833 23.7264 14.1412 23.382 14.3648C23.0377 14.5908 22.7868 14.8069 22.6269 15.0182C22.4671 15.2294 22.3884 15.4481 22.3884 15.6716C22.3884 15.8976 22.44 16.1678 22.5482 16.4847C24.4003 15.48 26.2279 14.7529 28.0308 14.3034C29.8312 13.8538 31.4866 13.6156 32.9968 13.5885C34.2143 13.5885 35.0752 13.8268 35.5794 14.3034C36.0812 14.7799 36.3395 15.4088 36.3542 16.1874C36.3665 16.9686 36.1944 17.8529 35.8377 18.8453C35.4811 19.8377 35.0359 20.8497 34.507 21.879L27.6299 35.4115H25.1284ZM31.9613 22.0018C32.7558 20.7073 33.3313 19.5896 33.6904 18.6488C34.0471 17.7104 34.2389 16.9219 34.266 16.2882C34.293 15.6544 34.1873 15.1705 33.9487 14.8413C33.7101 14.5097 33.3781 14.3206 32.955 14.2665C32.5049 14.2149 31.9342 14.2395 31.248 14.3451C30.5593 14.4507 29.7919 14.6571 28.9433 14.9592C28.0947 15.2638 27.1822 15.6593 26.2033 16.1506C25.2243 16.6394 24.2183 17.2413 23.1853 17.9561L27.9521 28.6268L31.9613 22.0018Z" fill="white"/>
<path d="M175.967 46.4059L177.351 45.1146C178.043 44.4689 179.841 45.1607 179.841 41.8864V16.3372C179.841 13.0628 178.043 13.7546 177.351 13.1089L175.967 11.8176H187.728C188.281 11.7254 188.834 11.6793 189.388 11.6332C195.706 11.3104 202.116 15.2765 203.776 21.364C205.852 29.0656 199.856 36.8595 191.878 37.1824C189.757 37.1824 188.281 37.1362 186.436 36.0755V46.4059H175.967ZM186.436 34.6459C195.844 34.4614 197.182 29.2501 197.412 24.1311C197.689 17.7207 192.893 12.74 187.405 13.7546C186.897 14.0774 186.436 14.7692 186.436 16.3372V34.6459Z" fill="#4A101D"/>
<path d="M147.653 33.4007C147.146 31.6021 147.146 25.7913 147.146 23.6238C147.146 17.4901 147.146 16.9367 147.146 16.3372C147.146 13.0628 145.301 13.7546 144.609 13.1089L143.226 11.8176H153.741C153.648 14.2158 153.648 21.0873 153.648 23.4854C153.648 24.0849 153.648 24.7306 153.648 25.4224L153.51 29.6191C153.51 30.3108 153.51 30.9565 153.51 31.556C153.51 34.2308 154.617 35.2915 156.231 35.2915C158.445 35.2915 161.627 33.2624 164.071 30.6336V16.3372C164.071 13.0628 162.272 13.7546 161.581 13.1089L160.197 11.8176H170.666V32.6628C170.666 35.9372 172.51 35.2454 173.202 35.8911L174.586 37.1824H164.071V33.2624C161.488 35.7066 157.246 37.6435 153.694 37.6435C150.881 37.6435 148.483 36.4445 147.653 33.4007Z" fill="#4A101D"/>
<path d="M138.316 15.5993C138.824 17.3979 138.824 23.2087 138.824 25.3762C138.824 31.5099 138.824 32.0633 138.824 32.6628C138.824 35.9372 140.668 35.2454 141.36 35.8911L142.744 37.1824H128.355L129.739 35.8911C130.43 35.2454 132.137 35.9372 132.229 32.6628C132.321 30.2647 132.321 27.9127 132.321 25.5146C132.321 24.9151 132.321 24.2694 132.321 23.5776L132.459 19.3809C132.459 18.6892 132.459 18.0435 132.459 17.444C132.459 14.7692 131.353 13.7085 129.739 13.7085C127.525 13.7085 124.343 15.7376 121.899 18.3664V37.1824H111.43L112.813 35.8911C113.505 35.2454 115.304 35.9372 115.304 32.6628V7.11365C115.304 3.83929 113.505 4.53106 112.813 3.88541L111.43 2.59412H125.819L124.435 3.88541C123.743 4.53106 121.899 3.83929 121.899 7.11365V15.7376C124.481 13.2934 128.724 11.3565 132.275 11.3565C135.088 11.3565 137.486 12.5555 138.316 15.5993Z" fill="#4A101D"/>
<path d="M88.1141 24.3155C88.1141 17.3979 93.7866 11.4487 100.75 11.4487C105.639 11.4487 113.986 14.9075 108.913 21.364C106.607 24.3155 101.212 26.2064 95.3546 27.9127C98.7673 30.7259 103.979 32.5706 109.144 32.2017C106.008 33.7697 104.855 37.1824 100.75 37.1824C95.4929 37.1824 90.9273 33.7696 89.0365 29.1118C87.6068 29.2501 86.1772 29.204 84.7014 29.1118L85.0703 26.6214C86.1772 26.7136 87.284 26.8059 88.3447 26.8059C88.2063 26.0219 88.1141 25.1456 88.1141 24.3155ZM93.7404 26.3908C100.151 25.4224 105.178 23.6238 106.054 21.5024C107.299 18.5969 102.226 15.6454 97.6605 15.6454C95.7696 15.6454 93.9249 16.1527 92.6797 17.3979C90.42 19.6576 91.0195 23.3471 93.7404 26.3908Z" fill="#4A101D"/>
<path d="M74.7868 37.1824H71.8814C71.8353 37.0901 71.7892 36.9979 71.7431 36.8595L64.7793 20.9028C63.8108 21.8252 62.8885 22.8859 61.9661 23.9927L59.9369 22.5169C61.136 21.0412 62.4273 19.7499 63.7647 18.6431L62.704 16.1988C61.5972 13.7085 59.7986 14.4464 59.2913 13.7085L58 11.8176H71.4664C68.7915 13.1551 68.3765 13.7546 68.8838 15.1842C73.1727 12.8322 77.5539 11.8638 81.0127 11.8176C86.6391 11.7715 85.1633 16.7061 82.7652 21.4562L74.7868 37.1824ZM75.1558 29.2962L79.8137 21.5946C83.4569 15.5993 82.9035 12.8322 80.9666 12.6016C78.8913 12.3249 74.4179 13.6162 69.6217 16.8906L75.1558 29.2962Z" fill="#4A101D"/>
</svg>
