<svg width="66" height="66" viewBox="0 0 66 66" fill="none" xmlns="http://www.w3.org/2000/svg">
<rect width="66" height="66" rx="33" fill="#36CE85"/>
<g clip-path="url(#clip0_1_272)">
<path d="M25.3601 46.2682H27.9608C29.4684 46.2682 29.4707 43.9193 27.9608 43.9193H25.3601C23.8526 43.9193 23.8504 46.2682 25.3601 46.2682ZM25.3601 44.7982H27.9608C28.3429 44.7982 28.3429 45.3893 27.9608 45.3893H25.3601C24.9782 45.3893 24.9782 44.7982 25.3601 44.7982Z" fill="white"/>
<path d="M28.5876 33.1049L25.7248 35.9678L24.7333 34.9762C24.3314 34.5746 23.71 35.1959 24.1118 35.5977L25.414 36.9C25.6212 37.0716 25.8284 37.0716 26.0355 36.9L29.2092 33.7264C29.6109 33.3245 28.9895 32.7033 28.5876 33.1049Z" fill="white"/>
<path d="M47.6735 37.4412C47.4961 37.1025 47.3676 36.7315 47.2803 36.3591C46.8517 34.5665 46.2006 32.8298 45.3453 31.1971L43.9152 28.4675C43.1057 26.9221 40.7165 27.1791 40.2655 28.874C39.1956 28.4891 37.9879 29.1217 37.6953 30.2205C36.8108 29.9022 35.7895 30.2771 35.3206 31.0905V21.4408V19.717C35.3205 18.7703 34.5503 18 33.6035 18H23.366C22.7978 18 22.7978 18.8789 23.366 18.8789H33.6035C34.0656 18.8789 34.4416 19.2548 34.4416 19.717V21.0013H18.8793V19.717C18.8793 19.2548 19.2552 18.8789 19.7173 18.8789H20.9051C21.4733 18.8789 21.4733 18 20.9051 18H19.7173C18.7706 18 18.0004 18.7703 18.0004 19.717V21.4408V42.6216V46.283C18.0004 47.2297 18.7706 48 19.7173 48H33.6035C34.5502 48 35.3205 47.2297 35.3205 46.283V42.6216V40.8613L36.8909 41.6381C37.2789 41.83 37.5979 42.1496 37.789 42.5381C38.4866 43.9557 40.2747 44.5435 41.6792 43.8076L44.2974 42.4359C44.8007 42.1723 44.3929 41.3938 43.8895 41.6574L41.2713 43.0291C40.2987 43.5388 39.0624 43.1351 38.5776 42.15C38.3016 41.5891 37.841 41.1275 37.2805 40.8502L30.6165 37.554C29.3649 36.9461 30.27 34.9825 31.5411 35.5754L33.9608 36.8491C34.3341 37.0457 34.7506 36.6301 34.5548 36.2564L30.3513 28.233C29.6611 26.9354 31.5096 25.7377 32.2146 27.0837L35.1858 32.7548L35.9619 34.2362C36.218 34.7254 37.0034 34.3304 36.7404 33.8283L35.9848 32.3862C35.6789 31.3666 36.9376 30.5445 37.7478 31.2553L38.5886 32.8601C38.8447 33.3493 39.6301 32.9542 39.3671 32.4522L38.5122 30.8205C38.4322 29.883 39.5802 29.2798 40.3059 29.8981L41.1521 31.5134C41.4083 32.0026 42.1936 31.6076 41.9306 31.1055L41.0843 29.49C40.9691 28.3395 42.5884 27.8287 43.1366 28.8753L44.5667 31.6049C45.3883 33.1732 46.0136 34.8415 46.4254 36.5633C46.5253 37.0099 46.6825 37.4434 46.8949 37.8489C47.4013 38.8154 47.0269 40.0136 46.0605 40.5199C45.5572 40.7837 45.9652 41.5622 46.4684 41.2985C47.8641 40.5673 48.4048 38.8369 47.6735 37.4412ZM34.4416 46.283C34.4416 46.7452 34.0656 47.1211 33.6035 47.1211H19.7173C19.2552 47.1211 18.8793 46.7452 18.8793 46.283V43.061H34.4416V46.283ZM29.2997 35.7185C29.0014 36.3456 29.0594 37.0966 29.4481 37.6717C28.7213 38.4322 27.7243 38.8632 26.6604 38.8632C24.5316 38.8632 22.7997 37.1313 22.7997 35.0024C22.7997 32.8736 24.5316 31.1417 26.6604 31.1417C28.6803 31.1417 30.3418 32.7012 30.5066 34.6793C29.9861 34.8381 29.5337 35.2266 29.2997 35.7185ZM32.4905 26.0604C32.2989 25.9048 32.0778 25.7852 31.8351 25.7094C30.4275 25.2695 29.0098 26.5603 29.3196 28.0018H20.9768C20.896 28.0018 20.8303 27.9362 20.8303 27.8554V24.7148C20.8303 24.634 20.896 24.5684 20.9768 24.5684H32.344C32.4248 24.5684 32.4905 24.634 32.4905 24.7148V26.0604ZM34.4416 29.4405L33.3694 27.394V24.7148C33.3694 24.1495 32.9094 23.6895 32.344 23.6895H20.9768C20.4114 23.6895 19.9514 24.1495 19.9514 24.7148V27.8554C19.9514 28.4208 20.4114 28.8808 20.9768 28.8808H29.6984L33.1212 35.4141L31.942 34.7933C31.9368 34.7905 31.9314 34.7878 31.9261 34.7853C31.7515 34.7022 31.5689 34.6462 31.3831 34.617C31.1861 32.1833 29.144 30.2628 26.6605 30.2628C24.047 30.2628 21.9208 32.389 21.9208 35.0024C21.9208 37.6159 24.047 39.7421 26.6605 39.7421C27.9712 39.7421 29.2003 39.2106 30.0931 38.2708C31.4873 39.0742 32.9991 39.7131 34.4416 40.4266V42.1821H18.8793V21.8803H34.4416V29.4405Z" fill="white"/>
</g>
<defs>
<clipPath id="clip0_1_272">
<rect width="30" height="30" fill="white" transform="translate(18 18)"/>
</clipPath>
</defs>
</svg>
