<svg width="66" height="66" viewBox="0 0 66 66" fill="none" xmlns="http://www.w3.org/2000/svg">
<rect width="66" height="66" rx="33" fill="#36B3CE"/>
<path d="M46.3598 30.525L44.6011 29.1178C44.5941 29.1122 44.587 29.1052 44.58 29.0995L46.2173 28.7719C46.4362 28.7283 46.5938 28.5361 46.5938 28.3125V26.9062C46.5938 26.6475 46.3838 26.4375 46.125 26.4375H43.7812C43.5225 26.4375 43.3125 26.6475 43.3125 26.9062V27.7275C43.3017 27.713 43.2909 27.6984 43.2802 27.6839C43.2506 27.6023 43.1981 27.5358 43.1316 27.4828C42.8677 27.1092 42.6417 26.7352 42.4945 26.4117L41.7023 24.6694C41.1975 23.558 39.8456 22.6875 38.625 22.6875H27.375C26.1544 22.6875 24.8025 23.558 24.2977 24.6694L23.5059 26.4113C23.3588 26.7347 23.1328 27.1092 22.8689 27.4828C22.8023 27.5358 22.7503 27.6023 22.7203 27.6839C22.7095 27.6984 22.6992 27.7125 22.688 27.7275V26.9062C22.688 26.6475 22.478 26.4375 22.2192 26.4375H19.875C19.6163 26.4375 19.4062 26.6475 19.4062 26.9062V28.3125C19.4062 28.5361 19.5637 28.7283 19.7831 28.7719L21.4205 29.0995C21.4134 29.1052 21.4064 29.1122 21.3994 29.1178L19.6402 30.525C18.7205 31.2609 18 32.76 18 33.9375V41.9062C18 42.6816 18.6309 43.3125 19.4062 43.3125H23.1562C23.9316 43.3125 24.5625 42.6816 24.5625 41.9062V40.9688H41.4375V41.9062C41.4375 42.6816 42.0684 43.3125 42.8438 43.3125H46.5938C47.3691 43.3125 48 42.6816 48 41.9062V33.9375C48 32.76 47.2795 31.2609 46.3598 30.525ZM42.1003 40.0312L41.0255 38.9564C40.5694 38.5003 39.7388 38.1562 39.0938 38.1562H26.6719C26.0269 38.1562 25.1962 38.5003 24.7402 38.9564L23.6653 40.0312H20.3438C19.5684 40.0312 18.9375 39.4003 18.9375 38.625V36.2812H19.4062V36.75C19.4062 37.7841 20.2472 38.625 21.2812 38.625H22.6875C22.9462 38.625 23.1562 38.415 23.1562 38.1562C23.1562 37.8975 22.9462 37.6875 22.6875 37.6875H21.2812C20.7642 37.6875 20.3438 37.267 20.3438 36.75V36.2812H21.2812C21.6703 36.2812 22.275 36.5316 22.5502 36.8067C22.6416 36.8981 22.7616 36.9441 22.8816 36.9441C23.0016 36.9441 23.1216 36.8981 23.213 36.8067C23.3963 36.6234 23.3963 36.3272 23.213 36.1439C22.7569 35.6878 21.9267 35.3438 21.2812 35.3438H18.9375V33.9375C18.9375 33.772 18.9638 33.5934 19.0008 33.4111C19.3008 33.7242 19.7372 33.9375 20.3438 33.9375H24.0938C24.218 33.9375 24.337 33.8883 24.4252 33.8002L25.0312 33.1941L25.6373 33.8002C25.725 33.8883 25.8445 33.9375 25.9688 33.9375H31.3997L32.6686 35.2064C32.76 35.2978 32.88 35.3438 33 35.3438C33.12 35.3438 33.24 35.2978 33.3314 35.2064L34.6003 33.9375H40.0312C40.1555 33.9375 40.275 33.8883 40.3627 33.8002L40.9688 33.1941L41.5748 33.8002C41.6625 33.8883 41.782 33.9375 41.9062 33.9375H45.6562C46.2628 33.9375 46.6992 33.7242 46.9992 33.4111C47.0363 33.5934 47.0625 33.772 47.0625 33.9375V35.3438H44.7188C44.0737 35.3438 43.2431 35.6878 42.787 36.1439C42.6038 36.3272 42.6038 36.6234 42.787 36.8067C42.8784 36.8981 42.9984 36.9441 43.1184 36.9441C43.2384 36.9441 43.3584 36.8981 43.4498 36.8067C43.725 36.5316 44.3297 36.2812 44.7188 36.2812H45.6562V36.75C45.6562 37.267 45.2358 37.6875 44.7188 37.6875H43.3125C43.0537 37.6875 42.8438 37.8975 42.8438 38.1562C42.8438 38.415 43.0537 38.625 43.3125 38.625H44.7188C45.7528 38.625 46.5938 37.7841 46.5938 36.75V36.2812H47.0625V38.625C47.0625 39.4003 46.4316 40.0312 45.6562 40.0312H42.1003ZM40.7747 40.0312H24.9909L25.403 39.6192C25.6781 39.3441 26.2828 39.0938 26.6719 39.0938H39.0938C39.4828 39.0938 40.0875 39.3441 40.3627 39.6192L40.7747 40.0312ZM23.4188 28.3125H42.5812C43.0355 28.913 43.5544 29.4811 44.0152 29.85L44.5791 30.3009L41.2636 31.627C41.2631 31.627 41.2631 31.6275 41.2627 31.6275C41.2059 31.6505 41.1525 31.6847 41.1066 31.7306L40.6378 32.1994L39.8372 33H34.4062C34.282 33 34.1625 33.0492 34.0748 33.1373L33 34.2122L31.9252 33.1373C31.8375 33.0492 31.718 33 31.5938 33H26.1628L25.3627 32.1998L24.8939 31.7311C24.848 31.6852 24.7945 31.6509 24.7378 31.628C24.7373 31.628 24.7373 31.6275 24.7369 31.6275L21.4214 30.3014L21.9853 29.8505C22.4456 29.4811 22.9645 28.913 23.4188 28.3125ZM46.5661 32.2589C46.4719 32.7488 46.1681 33 45.6562 33H42.1003L41.6316 32.5312L41.7009 32.4619L45.4205 30.9741L45.7739 31.2572C46.0711 31.4948 46.3453 31.8562 46.5661 32.2589ZM44.25 27.375H45.6562V27.9281L44.25 28.2094V27.375ZM24.3586 26.7994L25.1503 25.0575C25.5037 24.2808 26.5223 23.625 27.375 23.625H38.625C39.4777 23.625 40.4963 24.2808 40.8492 25.057L41.6414 26.7994C41.7239 26.9803 41.8312 27.1758 41.9489 27.375H24.0511C24.1688 27.1758 24.2766 26.9803 24.3586 26.7994ZM20.3438 27.375H21.75V28.2094L20.3438 27.9281V27.375ZM20.2256 31.2572L20.5791 30.9741L24.2991 32.4619L24.3684 32.5312L23.8997 33H20.3438C19.8319 33 19.5281 32.7488 19.4339 32.2589C19.6547 31.8562 19.9284 31.4948 20.2256 31.2572ZM23.1562 42.375H19.4062C19.148 42.375 18.9375 42.1645 18.9375 41.9062V40.4883C19.3303 40.7855 19.8141 40.9688 20.3438 40.9688H23.625V41.9062C23.625 42.1645 23.4145 42.375 23.1562 42.375ZM46.5938 42.375H42.8438C42.5855 42.375 42.375 42.1645 42.375 41.9062V40.9688H45.6562C46.1859 40.9688 46.6697 40.7855 47.0625 40.4883V41.9062C47.0625 42.1645 46.852 42.375 46.5938 42.375Z" fill="white"/>
</svg>
