<svg width="66" height="66" viewBox="0 0 66 66" fill="none" xmlns="http://www.w3.org/2000/svg">
<rect width="66" height="66" rx="33" fill="#3645CE"/>
<g clip-path="url(#clip0_1_318)">
<path d="M23.25 37.5C22.0074 37.5 21 38.5074 21 39.75C21 40.9926 22.0074 42 23.25 42C24.4926 42 25.5 40.9926 25.5 39.75C25.4973 38.5085 24.4915 37.5027 23.25 37.5ZM23.25 41C22.5596 41 22 40.4404 22 39.75C22 39.0596 22.5596 38.5 23.25 38.5C23.9404 38.5 24.5 39.0596 24.5 39.75C24.5 40.4404 23.9404 41 23.25 41Z" fill="white"/>
<path d="M42.75 37.5C41.5074 37.5 40.5 38.5074 40.5 39.75C40.5 40.9926 41.5074 42 42.75 42C43.9926 42 45 40.9926 45 39.75C44.9973 38.5085 43.9915 37.5027 42.75 37.5ZM42.75 41C42.0596 41 41.5 40.4404 41.5 39.75C41.5 39.0596 42.0596 38.5 42.75 38.5C43.4404 38.5 44 39.0596 44 39.75C44 40.4404 43.4404 41 42.75 41Z" fill="white"/>
<path d="M46 33H43.75C42.915 30.13 42.975 30.305 42.9 30.2C42.4 29.52 41.29 29.05 40 28.725V27H44C44.8284 27 45.5 26.3284 45.5 25.5V19.5C45.5 18.6716 44.8284 18 44 18H22C21.1716 18 20.5 18.6716 20.5 19.5V25.5C20.5 26.3284 21.1716 27 22 27H26V28.725C24.71 29.05 23.61 29.52 23.1 30.2C23.025 30.305 23.1 30.13 22.25 33H20C18.8954 33 18 33.8954 18 35C18.0048 35.8926 18.6005 36.674 19.46 36.915C19.1615 37.3899 19.0021 37.9391 19 38.5V41C19.0036 42.2683 19.8043 43.3973 21 43.82V46.5C21 47.3284 21.6716 48 22.5 48H25.5C26.3284 48 27 47.3284 27 46.5V44H39V46.5C39 47.3284 39.6716 48 40.5 48H43.5C44.3284 48 45 47.3284 45 46.5V43.82C46.1957 43.3973 46.9964 42.2683 47 41V38.5C46.9979 37.9391 46.8385 37.3899 46.54 36.915C46.8696 36.8258 47.1708 36.6536 47.415 36.415C47.9877 35.843 48.1591 34.9822 47.8492 34.2344C47.5394 33.4867 46.8094 32.9994 46 33ZM39 28.5C38.67 28.435 38.335 28.38 38 28.335V27H39V28.5ZM37 27V28.22C34.3412 27.93 31.6588 27.93 29 28.22V27H37ZM21.5 25.5V19.5C21.5 19.2239 21.7239 19 22 19H44C44.2761 19 44.5 19.2239 44.5 19.5V25.5C44.5 25.7761 44.2761 26 44 26H22C21.7239 26 21.5 25.7761 21.5 25.5ZM27 27H28V28.345C27.665 28.39 27.33 28.445 27 28.51V27ZM23.95 30.735C25.05 29.5 30.055 29 33 29C35.945 29 40.95 29.475 42.05 30.735C43.05 34.235 42.78 33.19 43.33 35.37C36.4918 34.215 29.5082 34.215 22.67 35.37C23.215 33.2 22.915 34.295 23.95 30.735ZM19 35C19 34.4477 19.4477 34 20 34H22L21.62 35.5C21.1639 35.5669 20.7293 35.738 20.35 36H20C19.4477 36 19 35.5523 19 35ZM26 46.5C26 46.7761 25.7761 47 25.5 47H22.5C22.2239 47 22 46.7761 22 46.5V44H26V46.5ZM44 46.5C44 46.7761 43.7761 47 43.5 47H40.5C40.2239 47 40 46.7761 40 46.5V44H44V46.5ZM46 41C46 42.1046 45.1046 43 44 43C20.38 43 21.88 43 21.605 42.96C20.6717 42.772 20.0003 41.9521 20 41V38.5C20 37.3954 20.8954 36.5 22 36.5H22.055C22.0699 36.5025 22.0851 36.5025 22.1 36.5C25.6972 35.8495 29.3445 35.5149 33 35.5C36.6888 35.5127 40.3694 35.8473 44 36.5C45.1046 36.5 46 37.3954 46 38.5V41ZM46.705 35.705C46.5183 35.8928 46.2648 35.9989 46 36H45.65C45.2751 35.7401 44.8459 35.5691 44.395 35.5L44 34H46C46.4032 34.0017 46.7659 34.2453 46.9199 34.6179C47.074 34.9904 46.9892 35.4191 46.705 35.705Z" fill="white"/>
<path d="M37 37.5H29C28.1716 37.5 27.5 38.1716 27.5 39V40.5C27.5 41.3284 28.1716 42 29 42H37C37.8284 42 38.5 41.3284 38.5 40.5V39C38.5 38.1716 37.8284 37.5 37 37.5ZM37.5 40.5C37.5 40.7761 37.2761 41 37 41H29C28.7239 41 28.5 40.7761 28.5 40.5V39C28.5 38.7239 28.7239 38.5 29 38.5H37C37.2761 38.5 37.5 38.7239 37.5 39V40.5Z" fill="white"/>
<path d="M28.5 23.75C28.5 22.75 27.5 22 26.25 22C25.5 22 25 21.605 25 21.25C25 20.895 25.5 20.5 26.25 20.5C27 20.5 27.5 20.895 27.5 21.25C27.5 21.5261 27.7239 21.75 28 21.75C29 21.75 28.5 19.5 26.25 19.5C25 19.5 24 20.27 24 21.25C24 22.23 25 23 26.25 23C26.985 23 27.5 23.395 27.5 23.75C27.5 24.105 27 24.5 26.25 24.5C25.5 24.5 25 24.105 25 23.75C25 23.4739 24.7761 23.25 24.5 23.25C23.5 23.25 24 25.5 26.25 25.5C27.5 25.5 28.5 24.73 28.5 23.75Z" fill="white"/>
<path d="M29.315 25.465C29.4383 25.5142 29.5761 25.5123 29.698 25.4598C29.82 25.4073 29.916 25.3084 29.965 25.185L30.44 24H32.56L33.035 25.185C33.1011 25.3511 33.2508 25.4694 33.4277 25.4952C33.6046 25.521 33.7819 25.4505 33.8927 25.3102C34.0035 25.1699 34.0311 24.9811 33.965 24.815L31.965 19.815C31.8896 19.6242 31.7052 19.4988 31.5 19.4988C31.2948 19.4988 31.1104 19.6242 31.035 19.815L29.035 24.815C28.9858 24.9383 28.9877 25.0761 29.0402 25.1981C29.0927 25.32 29.1916 25.416 29.315 25.465ZM31.5 21.345L32.16 23H30.84L31.5 21.345Z" fill="white"/>
<path d="M35 25.5H37.5C37.7761 25.5 38 25.2761 38 25C38 24.7239 37.7761 24.5 37.5 24.5H35.5V20C35.5 19.7239 35.2761 19.5 35 19.5C34.7239 19.5 34.5 19.7239 34.5 20V25C34.5 25.2761 34.7239 25.5 35 25.5Z" fill="white"/>
<path d="M39 25.5H41.5C41.7761 25.5 42 25.2761 42 25C42 24.7239 41.7761 24.5 41.5 24.5H39.5V23H41C41.2761 23 41.5 22.7761 41.5 22.5C41.5 22.2239 41.2761 22 41 22H39.5V20.5H41.5C41.7761 20.5 42 20.2761 42 20C42 19.7239 41.7761 19.5 41.5 19.5H39C38.7239 19.5 38.5 19.7239 38.5 20V25C38.5 25.2761 38.7239 25.5 39 25.5Z" fill="white"/>
</g>
<defs>
<clipPath id="clip0_1_318">
<rect width="30" height="30" fill="white" transform="translate(18 18)"/>
</clipPath>
</defs>
</svg>
